<?xml version="1.0" encoding="UTF-8"?>
<svg viewBox="0 0 96 96" xmlns="http://www.w3.org/2000/svg">
  <title>openstack-service-checks</title>
  <path
     d="M 48,0 A 48,48 0 0 0 0,48 48,48 0 0 0 48,96 48,48 0 0 0 96,48 48,48 0 0 0 48,0 Z"
     style="fill:#383838" />
  <path
     d="m 39.19932,78.31843 c 0.0925,-2.41432 2.46254,-3.16177 3.90961,-3.38125 1.38616,-0.21025 4.34278,0.55681 9.76464,0.46837 5.42186,-0.0884 10.38805,-0.67857 11.27325,-0.71814 1.60352,-0.0717 4.34858,0.6196 7.10571,0.89109 3.48009,0.34268 5.49801,-0.42057 7.46923,0.68238 1.30453,0.72992 0.877,2.43646 -0.60277,3.53719 -1.07737,0.80141 -1.31615,0.81236 -8.24848,0.37843 -4.17788,-0.26153 -8.05691,-0.30722 -9.35201,-0.11017 -1.09732,0.16697 -5.1827,0.37876 -8.9648,0.24085 -2.12666,-0.0775 -3.86975,-0.48694 -5.63506,-0.5361 -2.03982,-0.0568 -3.07076,0.3365 -3.79797,0.30845 -1.93309,-0.0746 -2.96981,-0.49664 -2.92135,-1.7611 z m 4.10805,-9.12455 c -1.79408,-1.09384 -2.10238,-2.15394 -2.10238,-7.229 0,-1.45392 -0.49582,-2.99499 0,-4.36175 0.24968,-0.68826 0.93885,-1.12373 1.40828,-1.68559 1.6074,-1.92395 1.76409,-3.19853 0.59507,-4.84028 -1.73856,-2.44158 -2.06571,-4.25265 -2.02303,-11.19958 0.0223,-3.62135 0.29367,-6.86886 0.41933,-7.29224 0.32278,-1.08762 1.02841,-1.2501 2.48369,-1.0458 1.37613,0.19318 3.19392,-0.16872 4.35841,-0.73363 2.10107,-1.01925 2.58892,-0.4195 3.39828,0.30467 0.48149,0.43081 1.05289,1.61279 1.44697,2.52536 0.45718,1.05871 1.17508,2.42059 2.43815,2.81655 2.40509,0.75397 2.86185,2.81586 5.36742,6.46047 2.00518,2.91673 4.08473,5.76848 4.62123,6.33725 2.24341,2.37831 3.01592,0.67286 2.72108,-6.00727 -0.0844,-1.9119 -0.49085,-3.59791 -0.28862,-5.02398 0.36307,-2.56031 -0.0517,-5.09205 0.85596,-6.57196 0.58553,-0.95474 1.82321,-0.68 3.99573,-0.66794 4.74539,0.0263 6.06812,0.8614 6.49148,6.18485 0.14358,1.80548 -0.0362,4.09058 0.0755,7.08494 0.17163,4.60138 0.29521,7.98852 -0.15679,11.26622 -0.2685,1.94705 -0.19339,4.19189 0.0957,6.34342 0.53136,3.95435 0.0815,6.02673 -1.59771,7.35987 -0.9891,0.78526 -1.405,0.84558 -4.23459,0.61409 -1.72577,-0.14117 -3.85623,-0.54416 -4.73436,-0.89552 -1.99758,-0.79926 -4.14002,-3.20662 -6.20286,-6.96983 -0.8775,-1.60079 -2.49125,-3.9337 -3.58612,-5.18423 -1.09487,-1.25054 -2.59912,-3.2243 -3.34278,-4.38613 -1.42348,-2.22394 -2.58621,-2.71464 -3.29486,-1.39052 -0.2125,0.39705 -0.49819,3.42988 -0.63486,6.73961 -0.0615,1.48725 0.24117,2.88211 0.0571,4.3625 -0.21818,1.75419 -1.2212,3.03698 -0.73426,3.88736 0.92132,1.60894 0.47695,1.94844 0.12155,2.63224 -0.6918,1.33106 -5.8549,1.88448 -8.01764,0.56585 z"
     style="fill:#ffffff" />
  <g fill="#ed1944">
    <path
       d="M 36.57086,20.194614 H 12.313272 a 2.7766855,2.7766855 0 0 0 -2.7686039,2.768598 v 6.525296 H 16.273729 V 28.42279 a 1.4975019,1.4975019 0 0 1 1.497497,-1.497505 h 13.346528 a 1.4975019,1.4975019 0 0 1 1.497499,1.497505 v 1.065718 h 6.73391 V 22.963212 A 2.7783027,2.7783027 0 0 0 36.57086,20.194614 Z" />
    <path
       d="m 32.610404,41.133765 a 1.4991191,1.4991191 0 0 1 -1.497506,1.497506 H 17.766377 A 1.4991191,1.4991191 0 0 1 16.268873,41.133765 V 40.068048 H 9.539819 v 6.523673 a 2.7766855,2.7766855 0 0 0 2.768598,2.770221 h 24.257588 a 2.7783027,2.7783027 0 0 0 2.783158,-2.770221 v -6.523673 h -6.738759 z" />
    <rect
       x="9.5398207"
       y="31.412945"
       width="6.7306724"
       height="6.7306724" />
    <rect
       x="32.610397"
       y="31.412945"
       width="6.7306724"
       height="6.7306724" />
  </g>
</svg>
